<svg width="1280" height="720" xmlns="http://www.w3.org/2000/svg" xmlns:xlink="http://www.w3.org/1999/xlink" overflow="hidden"><defs><clipPath id="clip0"><rect x="0" y="0" width="1280" height="720"/></clipPath><clipPath id="clip1"><rect x="785" y="440" width="60" height="68"/></clipPath><clipPath id="clip2"><rect x="785" y="440" width="60" height="68"/></clipPath><clipPath id="clip3"><rect x="785" y="440" width="60" height="68"/></clipPath><clipPath id="clip4"><rect x="614" y="216" width="68" height="68"/></clipPath><clipPath id="clip5"><rect x="614" y="216" width="68" height="68"/></clipPath><clipPath id="clip6"><rect x="614" y="216" width="68" height="68"/></clipPath><clipPath id="clip7"><rect x="341" y="338" width="87" height="69"/></clipPath><clipPath id="clip8"><rect x="341" y="338" width="87" height="69"/></clipPath><clipPath id="clip9"><rect x="341" y="338" width="87" height="69"/></clipPath></defs><g clip-path="url(#clip0)"><rect x="0" y="0" width="1280" height="720" fill="#212529"/><path d="M295 391C295 344.056 333.056 306 380 306 426.944 306 465 344.056 465 391 465 437.944 426.944 476 380 476 333.056 476 295 437.944 295 391Z" fill="#2CAA95" fill-rule="evenodd"/><path d="M565 266C565 219.056 603.056 181 650 181 696.944 181 735 219.056 735 266 735 312.944 696.944 351 650 351 603.056 351 565 312.944 565 266Z" fill="#2CAA95" fill-rule="evenodd"/><path d="M731 495.5C731 448.28 769.056 410 816 410 862.944 410 901 448.28 901 495.5 901 542.72 862.944 581 816 581 769.056 581 731 542.72 731 495.5Z" fill="#2CAA95" fill-rule="evenodd"/><text fill="#FFFFFF" font-family="Inter,Inter_MSFontService,sans-serif" font-weight="700" font-size="24" transform="translate(368.277 441)">01</text><text fill="#FFFFFF" font-family="Inter,Inter_MSFontService,sans-serif" font-weight="700" font-size="24" transform="translate(632.127 318)">02</text><text fill="#FFFFFF" font-family="Inter,Inter_MSFontService,sans-serif" font-weight="700" font-size="24" transform="translate(798.671 550)">03</text><g clip-path="url(#clip1)"><g clip-path="url(#clip2)"><g clip-path="url(#clip3)"><path d="M19.125 19.125 19.125 25.5 40.375 25.5 40.375 19.125C40.375 13.2547 35.6203 8.5 29.75 8.5 23.8797 8.5 19.125 13.2547 19.125 19.125ZM10.625 25.5 10.625 19.125C10.625 8.56641 19.1914 0 29.75 0 40.3086 0 48.875 8.56641 48.875 19.125L48.875 25.5 51 25.5C55.6883 25.5 59.5 29.3117 59.5 34L59.5 59.5C59.5 64.1883 55.6883 68 51 68L8.5 68C3.81172 68 0 64.1883 0 59.5L0 34C0 29.3117 3.81172 25.5 8.5 25.5L10.625 25.5Z" fill="#FFFFFF" transform="matrix(1.0084 0 0 1 785 440)"/></g></g></g><g clip-path="url(#clip4)"><g clip-path="url(#clip5)"><g clip-path="url(#clip6)"><path d="M622.5 220.25C617.812 220.25 614 224.062 614 228.75L614 237.25C614 241.938 617.812 245.75 622.5 245.75L673.5 245.75C678.188 245.75 682 241.938 682 237.25L682 228.75C682 224.062 678.188 220.25 673.5 220.25L622.5 220.25ZM659.688 229.812C661.448 229.812 662.875 231.24 662.875 233 662.875 234.76 661.448 236.188 659.688 236.188 657.927 236.188 656.5 234.76 656.5 233 656.5 231.24 657.927 229.812 659.688 229.812ZM666.062 233C666.062 231.24 667.49 229.812 669.25 229.812 671.01 229.812 672.438 231.24 672.438 233 672.438 234.76 671.01 236.188 669.25 236.188 667.49 236.188 666.062 234.76 666.062 233ZM622.5 254.25C617.812 254.25 614 258.062 614 262.75L614 271.25C614 275.938 617.812 279.75 622.5 279.75L673.5 279.75C678.188 279.75 682 275.938 682 271.25L682 262.75C682 258.062 678.188 254.25 673.5 254.25L622.5 254.25ZM659.688 263.812C661.448 263.812 662.875 265.24 662.875 267 662.875 268.76 661.448 270.188 659.688 270.188 657.927 270.188 656.5 268.76 656.5 267 656.5 265.24 657.927 263.812 659.688 263.812ZM667.125 267C667.125 265.24 668.552 263.812 670.312 263.812 672.073 263.812 673.5 265.24 673.5 267 673.5 268.76 672.073 270.188 670.312 270.188 668.552 270.188 667.125 268.76 667.125 267Z" fill="#FFFFFF"/></g></g></g><g clip-path="url(#clip7)"><g clip-path="url(#clip8)"><g clip-path="url(#clip9)"><path d="M41.5752 18.2338C42.532 17.3848 42.9094 16.0506 42.4107 14.8646 42.1008 14.1504 41.7639 13.4496 41.3865 12.7758L40.9688 12.048C40.5645 11.3742 40.1197 10.7139 39.648 10.0805 38.8799 9.05625 37.5322 8.71934 36.3193 9.12363L32.5189 10.377C31.077 9.19102 29.4193 8.2207 27.6404 7.56035L26.8184 3.65215C26.5623 2.39883 25.592 1.40156 24.3252 1.25332 23.4357 1.13203 22.5328 1.07812 21.6164 1.07812L21.5221 1.07812C20.6057 1.07812 19.7027 1.13203 18.8133 1.23984 17.5465 1.38809 16.5762 2.39883 16.3201 3.63867L15.498 7.56035C13.7057 8.23418 12.0615 9.19102 10.6195 10.377L6.80566 9.13711C5.59277 8.73281 4.24512 9.06973 3.47695 10.0939 3.00527 10.7273 2.56055 11.3877 2.14277 12.0615L1.73848 12.7758C1.36113 13.4496 1.02422 14.1504 0.714258 14.8781 0.215625 16.0506 0.592969 17.3848 1.5498 18.2473L4.5416 20.9156C4.39336 21.8186 4.3125 22.7619 4.3125 23.7188 4.3125 24.6756 4.39336 25.6189 4.5416 26.5354L1.5498 29.2037C0.592969 30.0527 0.215625 31.3869 0.714258 32.5728 1.02422 33.2871 1.36113 33.9879 1.73848 34.6752L2.14277 35.376C2.54707 36.0633 2.9918 36.7102 3.47695 37.3436 4.24512 38.3678 5.59277 38.7047 6.80566 38.3004L10.6061 37.0471C12.048 38.233 13.7057 39.2033 15.4846 39.8637L16.3066 43.7854C16.5627 45.0387 17.533 46.0359 18.7998 46.1842 19.7027 46.292 20.6191 46.3459 21.549 46.3459 22.4789 46.3459 23.3953 46.292 24.2982 46.1842 25.565 46.0359 26.5354 45.0252 26.7914 43.7854L27.6135 39.8637C29.4059 39.1898 31.05 38.233 32.492 37.0471L36.2924 38.3004C37.5053 38.7047 38.8529 38.3678 39.6211 37.3436 40.0928 36.7102 40.5375 36.0633 40.9418 35.376L41.3596 34.6482C41.7369 33.9744 42.0738 33.2736 42.3838 32.5594 42.8824 31.3869 42.5051 30.0527 41.5482 29.1902L38.5564 26.5219C38.7047 25.6055 38.7855 24.6621 38.7855 23.7053 38.7855 22.7484 38.7047 21.8051 38.5564 20.8887L41.5482 18.2203ZM15.0938 23.7188C15.0938 20.1461 17.9899 17.25 21.5625 17.25 25.1351 17.25 28.0312 20.1461 28.0312 23.7188 28.0312 27.2914 25.1351 30.1875 21.5625 30.1875 17.9899 30.1875 15.0938 27.2914 15.0938 23.7188ZM68.0162 67.4502C68.8652 68.407 70.1994 68.7844 71.3854 68.2857 72.0996 67.9758 72.8004 67.6389 73.4742 67.2615L74.202 66.8438C74.8758 66.4395 75.5361 65.9947 76.1695 65.523 77.1937 64.7549 77.5307 63.4072 77.1264 62.1943L75.873 58.3939C77.059 56.952 78.0293 55.2943 78.6897 53.5154L82.6113 52.6934C83.8646 52.4373 84.8619 51.467 85.0102 50.2002 85.118 49.2973 85.1719 48.3809 85.1719 47.451 85.1719 46.5211 85.118 45.6047 85.0102 44.7018 84.8619 43.435 83.8512 42.4646 82.6113 42.2086L78.6897 41.373C78.0158 39.5807 77.059 37.9365 75.873 36.4945L77.1264 32.6941C77.5307 31.4813 77.1937 30.1336 76.1695 29.3654 75.5361 28.8937 74.8758 28.449 74.202 28.0312L73.4877 27.627C72.8139 27.2496 72.1131 26.9127 71.3854 26.6027 70.2129 26.1041 68.8787 26.4814 68.0162 27.4383L65.3478 30.4301C64.4314 30.2818 63.4881 30.201 62.5312 30.201 61.5744 30.201 60.6311 30.2818 59.7146 30.4301L57.0463 27.4383C56.1973 26.4814 54.8631 26.1041 53.6771 26.6027 52.9629 26.9127 52.2621 27.2496 51.5748 27.627L50.874 28.0312C50.1867 28.4355 49.5398 28.8803 48.9064 29.3654 47.8822 30.1336 47.5453 31.4813 47.9496 32.6941L49.2029 36.4945C48.017 37.9365 47.0467 39.5941 46.3863 41.373L42.4646 42.1816C41.2113 42.4377 40.2141 43.408 40.0658 44.6748 39.958 45.5777 39.9041 46.4941 39.9041 47.424 39.9041 48.3539 39.958 49.2703 40.0658 50.1732 40.2141 51.44 41.2248 52.4104 42.4646 52.6664L46.3863 53.4885C47.0602 55.2809 48.017 56.925 49.2029 58.367L47.9496 62.1674C47.5453 63.3803 47.8822 64.7279 48.9064 65.4961 49.5398 65.9678 50.1867 66.4125 50.874 66.8168L51.6018 67.2346C52.2756 67.6119 52.9764 67.9488 53.6906 68.2588 54.8631 68.7574 56.1973 68.3801 57.0598 67.4232L59.7281 64.4314C60.6445 64.5797 61.5879 64.6605 62.5447 64.6605 63.5016 64.6605 64.4449 64.5797 65.3613 64.4314L68.0297 67.4232ZM62.5312 40.9688C66.1039 40.9688 69 43.8649 69 47.4375 69 51.0101 66.1039 53.9062 62.5312 53.9062 58.9586 53.9062 56.0625 51.0101 56.0625 47.4375 56.0625 43.8649 58.9586 40.9688 62.5312 40.9688Z" fill="#FFFFFF" transform="matrix(1.0087 0 0 1 341 338)"/></g></g></g><path d="M712.5 496C712.5 438.839 759.062 392.5 816.5 392.5 873.938 392.5 920.5 438.839 920.5 496 920.5 553.161 873.938 599.5 816.5 599.5 759.062 599.5 712.5 553.161 712.5 496Z" stroke="#66C9CB" stroke-width="2.66667" stroke-miterlimit="8" fill="none" fill-rule="evenodd"/><path d="M276.5 391.5C276.5 334.062 323.062 287.5 380.5 287.5 437.938 287.5 484.5 334.062 484.5 391.5 484.5 448.938 437.938 495.5 380.5 495.5 323.062 495.5 276.5 448.938 276.5 391.5Z" stroke="#66C9CB" stroke-width="2.66667" stroke-miterlimit="8" fill="none" fill-rule="evenodd"/><path d="M546.5 266.5C546.5 209.062 593.062 162.5 650.5 162.5 707.938 162.5 754.5 209.062 754.5 266.5 754.5 323.938 707.938 370.5 650.5 370.5 593.062 370.5 546.5 323.938 546.5 266.5Z" stroke="#66C9CB" stroke-width="2.66667" stroke-miterlimit="8" fill="none" fill-rule="evenodd"/><path d="M465.5 451.5C490.644 448.857 515.789 446.213 529.311 416.047 542.832 385.88 550.125 307.198 546.631 270.5" stroke="#66C9CB" stroke-width="2.66667" stroke-miterlimit="8" fill="none" fill-rule="evenodd"/><path d="M753.5 254.5C764.086 282.529 774.672 310.558 775.473 336.558 776.274 362.558 759.336 406.292 758.307 410.5" stroke="#66C9CB" stroke-width="2.66667" stroke-miterlimit="8" fill="none" fill-rule="evenodd"/><path d="M373 287C373 282.582 376.358 279 380.5 279 384.642 279 388 282.582 388 287 388 291.418 384.642 295 380.5 295 376.358 295 373 291.418 373 287Z" fill="#66C9CB" fill-rule="evenodd"/><path d="M733 216.5C733 212.358 736.358 209 740.5 209 744.642 209 748 212.358 748 216.5 748 220.642 744.642 224 740.5 224 736.358 224 733 220.642 733 216.5Z" fill="#66C9CB" fill-rule="evenodd"/><path d="M912 494.5C912 490.358 915.358 487 919.5 487 923.642 487 927 490.358 927 494.5 927 498.642 923.642 502 919.5 502 915.358 502 912 498.642 912 494.5Z" fill="#66C9CB" fill-rule="evenodd"/><path d="M18.9407 151.866 139.607 151.866 139.607 190.866 18.9407 190.866Z" fill="#CBECED" fill-rule="evenodd"/><text fill="#1B2122" font-family="Inter,Inter_MSFontService,sans-serif" font-weight="700" font-size="32" transform="translate(18.9407 183)">Dienste</text><text fill="#BDC9CB" font-family="Inter,Inter_MSFontService,sans-serif" font-weight="400" font-size="21" transform="translate(19.5486 218)">Datalok hostet</text><text fill="#BDC9CB" font-family="Inter,Inter_MSFontService,sans-serif" font-weight="400" font-size="21" transform="translate(19.5486 244)">verschieden</text><text fill="#BDC9CB" font-family="Inter,Inter_MSFontService,sans-serif" font-weight="700" font-size="21" transform="translate(149.215 244)">open</text><text fill="#BDC9CB" font-family="Inter,Inter_MSFontService,sans-serif" font-weight="700" font-size="21" transform="translate(202.049 244)">-</text><text fill="#BDC9CB" font-family="Inter,Inter_MSFontService,sans-serif" font-weight="700" font-size="21" transform="translate(19.5486 270)">source Dienste</text><text fill="#BDC9CB" font-family="Inter,Inter_MSFontService,sans-serif" font-weight="400" font-size="21" transform="translate(182.715 270)">die</text><text fill="#BDC9CB" font-family="Inter,Inter_MSFontService,sans-serif" font-weight="400" font-size="21" transform="translate(19.5486 295)">Manche sogar</text><text fill="#BDC9CB" font-family="Inter,Inter_MSFontService,sans-serif" font-weight="400" font-size="21" transform="translate(19.5486 321)">nutzen dürfen.</text><path d="M225.096 171.001C300.776 180.953 391.929 221.956 382 280.5" stroke="#66C9CB" stroke-width="6" stroke-linecap="round" stroke-linejoin="round" stroke-miterlimit="10" stroke-dasharray="0 12" fill="none" fill-rule="evenodd"/><path d="M874.353 118.034 978.52 118.034 978.52 157.034 874.353 157.034Z" fill="#CBECED" fill-rule="evenodd"/><text fill="#1B2122" font-family="Inter,Inter_MSFontService,sans-serif" font-weight="700" font-size="32" transform="translate(874.353 149)">Server</text><text fill="#BDC9CB" font-family="Inter,Inter_MSFontService,sans-serif" font-weight="400" font-size="21" transform="translate(874.961 184)">Wir hosten auf</text><text fill="#BDC9CB" font-family="Inter,Inter_MSFontService,sans-serif" font-weight="700" font-size="21" transform="translate(874.961 210)">Unternehmensähnlichen Servern</text><text fill="#BDC9CB" font-family="Inter,Inter_MSFontService,sans-serif" font-weight="400" font-size="21" transform="translate(874.961 236)">mit hoher Geschwindigkeit</text><path d="M1009.86 381.593 1170.86 381.593 1170.86 420.593 1009.86 420.593Z" fill="#CBECED" fill-rule="evenodd"/><text fill="#1B2122" font-family="Inter,Inter_MSFontService,sans-serif" font-weight="700" font-size="32" transform="translate(1009.86 413)">Sicherheit</text><text fill="#BDC9CB" font-family="Inter,Inter_MSFontService,sans-serif" font-weight="400" font-size="21" transform="translate(1010.28 448)">Uns ist die</text><text fill="#BDC9CB" font-family="Inter,Inter_MSFontService,sans-serif" font-weight="700" font-size="21" transform="translate(1122.45 448)">Sicherheit</text><text fill="#BDC9CB" font-family="Inter,Inter_MSFontService,sans-serif" font-weight="400" font-size="21" transform="translate(1010.28 474)">mitlerweile</text><text fill="#BDC9CB" font-family="Inter,Inter_MSFontService,sans-serif" font-weight="400" font-size="21" transform="translate(1125.45 474)">ziemlich</text><text fill="#BDC9CB" font-family="Inter,Inter_MSFontService,sans-serif" font-weight="400" font-size="21" transform="translate(1010.28 500)">wichtig geworden,</text><text fill="#BDC9CB" font-family="Inter,Inter_MSFontService,sans-serif" font-weight="400" font-size="21" transform="translate(1010.28 525)">weshalb wir stets sicher</text><text fill="#BDC9CB" font-family="Inter,Inter_MSFontService,sans-serif" font-weight="400" font-size="21" transform="translate(1010.28 551)">stellen, dass unsere</text><text fill="#BDC9CB" font-family="Inter,Inter_MSFontService,sans-serif" font-weight="400" font-size="21" transform="translate(1010.28 576)">Systeme den Standards</text><text fill="#BDC9CB" font-family="Inter,Inter_MSFontService,sans-serif" font-weight="400" font-size="21" transform="translate(1010.28 602)">folgen.</text><path d="M110.947 0.000626455C161.246-1.42184 218.903 38.5766 221 81.5" stroke="#66C9CB" stroke-width="6" stroke-linecap="round" stroke-linejoin="round" stroke-miterlimit="10" stroke-dasharray="0 12" fill="none" fill-rule="evenodd" transform="matrix(-1 0 0 1 964 139)"/><path d="M64.0087 0.00306759C98.8792 0.414383 127 42.1537 127 93.5001" stroke="#66C9CB" stroke-width="6" stroke-linecap="round" stroke-linejoin="round" stroke-miterlimit="10" stroke-dasharray="0 12" fill="none" fill-rule="evenodd" transform="matrix(-1 0 0 1 1050 400)"/></g></svg>